<?xml version="1.0" encoding="utf-8"?>
<!-- Generator: Adobe Illustrator 25.0.0, SVG Export Plug-In . SVG Version: 6.00 Build 0)  -->
<svg version="1.1" id="Layer_1" xmlns="http://www.w3.org/2000/svg" xmlns:xlink="http://www.w3.org/1999/xlink" x="0px" y="0px"
	 viewBox="0 0 145.3 55.1" style="enable-background:new 0 0 145.3 55.1;" xml:space="preserve">
<style type="text/css">
	.st0{fill:#4F4A5F;}
	.st1{fill-rule:evenodd;clip-rule:evenodd;fill:#E5A535;}
	.st2{fill-rule:evenodd;clip-rule:evenodd;fill:#1979B8;}
	.st3{fill-rule:evenodd;clip-rule:evenodd;fill:#C52285;}
	.st4{fill-rule:evenodd;clip-rule:evenodd;fill:#4F4A5F;}
</style>
<g>
	<g>
		<path class="st0" d="M62.4,46.7c-0.2-0.6-0.3-1.5-0.3-2.6c-0.6,0.9-1.3,1.7-2.2,2.2c-0.9,0.5-1.9,0.8-3,0.8
			c-1.6,0-2.9-0.5-3.8-1.4s-1.4-2.2-1.4-3.9c0-1.8,0.6-3.3,1.9-4.4c1.3-1.1,3-1.6,5.2-1.6h3.2v-2.6c0-1.3-0.3-2.3-1-2.9
			c-0.7-0.6-1.6-0.9-2.9-0.9c-1.2,0-2.2,0.3-2.9,1C54.4,31,54,31.9,54,33l-1.9,0c0-1.5,0.6-2.9,1.7-3.9c1.2-1.1,2.6-1.6,4.4-1.6
			c1.9,0,3.3,0.5,4.3,1.4c1,1,1.5,2.3,1.5,4.2v9.3c0,1.8,0.2,3.2,0.5,4.1v0.2H62.4z M57.1,45.2c1.1,0,2.1-0.3,3-0.9
			c0.9-0.6,1.5-1.4,1.9-2.4v-4.6H59c-1.8,0-3.1,0.4-4,1.2c-0.9,0.8-1.3,1.8-1.3,3.1C53.7,44,54.8,45.2,57.1,45.2z"/>
		<path class="st0" d="M73.3,22.4c0-0.4,0.1-0.7,0.3-1c0.2-0.3,0.5-0.4,0.9-0.4c0.4,0,0.7,0.1,0.9,0.4c0.2,0.3,0.3,0.6,0.3,1
			c0,0.4-0.1,0.7-0.3,1c-0.2,0.3-0.5,0.4-0.9,0.4c-0.4,0-0.7-0.1-0.9-0.4C73.4,23.1,73.3,22.8,73.3,22.4z M75.5,46.7h-2V27.8h2V46.7
			z"/>
		<path class="st0" d="M88.9,42.4l0.2,1l0.2-1.1l3.9-14.5h1.6l3.8,14.4l0.3,1.5l0.2-1.3l3.3-14.5h2l-4.6,18.9h-1.6l-4.1-15l-0.1-0.5
			l-0.1,0.5l-4,15h-1.6l-4.6-18.9h2L88.9,42.4z"/>
		<path class="st0" d="M111.6,36.3c0-2.7,0.6-4.9,1.8-6.4c1.2-1.6,2.9-2.4,5-2.4c2.1,0,3.8,0.8,5,2.3s1.8,3.7,1.9,6.4v2
			c0,2.8-0.6,4.9-1.9,6.5c-1.2,1.5-2.9,2.3-5,2.3c-2.1,0-3.8-0.8-5-2.3c-1.2-1.5-1.9-3.6-1.9-6.2V36.3z M113.5,38.2
			c0,2.2,0.4,3.9,1.3,5.1c0.9,1.2,2.1,1.9,3.7,1.9c1.6,0,2.8-0.6,3.7-1.8c0.8-1.2,1.3-2.9,1.3-5.1v-2c0-2.2-0.4-3.9-1.3-5.1
			c-0.9-1.2-2.1-1.9-3.6-1.9c-1.5,0-2.7,0.6-3.6,1.8c-0.9,1.2-1.3,2.9-1.4,5V38.2z"/>
		<path class="st0" d="M143.3,42c0-0.8-0.3-1.5-1-2.1c-0.7-0.6-1.8-1.3-3.4-2s-2.7-1.3-3.4-1.8s-1.1-1-1.4-1.6
			c-0.3-0.6-0.5-1.2-0.5-2c0-1.5,0.5-2.7,1.6-3.6c1-0.9,2.4-1.4,4.1-1.4c1.8,0,3.2,0.5,4.3,1.5c1.1,1,1.6,2.3,1.6,4h-1.9
			c0-1.1-0.4-2-1.1-2.7c-0.7-0.7-1.7-1.1-2.9-1.1c-1.1,0-2,0.3-2.7,0.9c-0.7,0.6-1,1.3-1,2.3c0,0.8,0.3,1.4,0.8,1.8
			c0.5,0.5,1.6,1.1,3.3,1.9c1.8,0.8,3,1.4,3.6,1.9c0.7,0.5,1.2,1.1,1.5,1.7c0.3,0.6,0.5,1.3,0.5,2.2c0,1.6-0.5,2.8-1.6,3.7
			c-1.1,0.9-2.5,1.4-4.3,1.4c-1.9,0-3.4-0.5-4.5-1.5c-1.2-1-1.7-2.3-1.7-4h2c0.1,1.2,0.5,2.1,1.2,2.7c0.7,0.6,1.8,1,3.1,1
			c1.2,0,2.1-0.3,2.9-0.9C143,43.8,143.3,43,143.3,42z"/>
	</g>
	<g>
		<g>
			<polyline class="st1" points="31.5,23.6 39.3,15.7 39.3,31.5 31.5,23.6 			"/>
		</g>
		<g>
			<polyline class="st1" points="31.5,39.3 39.3,31.5 39.3,47.2 31.5,39.3 			"/>
		</g>
		<g>
			<polyline class="st1" points="39.3,31.5 31.5,23.6 31.5,39.3 39.3,31.5 			"/>
		</g>
		<g>
			<polyline class="st1" points="39.3,47.2 31.5,39.3 31.5,55.1 39.3,47.2 			"/>
		</g>
		<g>
			<polyline class="st1" points="39.3,15.7 31.5,7.9 31.5,23.6 39.3,15.7 			"/>
		</g>
		<g>
			<polyline class="st2" points="23.6,31.5 15.7,23.6 31.5,23.6 23.6,31.5 			"/>
		</g>
		<g>
			<polyline class="st2" points="15.7,23.6 7.9,31.5 23.6,31.5 15.7,23.6 			"/>
		</g>
		<g>
			<polyline class="st3" points="23.6,47.2 15.7,55.1 31.5,55.1 23.6,47.2 			"/>
		</g>
		<g>
			<polyline class="st3" points="15.7,55.1 7.9,47.2 23.6,47.2 15.7,55.1 			"/>
		</g>
		<g>
			<polyline class="st4" points="23.6,0 15.7,7.9 31.5,7.9 23.6,0 			"/>
		</g>
		<g>
			<polyline class="st4" points="15.7,7.9 7.9,0 23.6,0 15.7,7.9 			"/>
		</g>
		<g>
			<polyline class="st2" points="0,39.3 7.9,31.5 7.9,47.2 0,39.3 			"/>
		</g>
	</g>
</g>
</svg>
