<?xml version="1.0" encoding="UTF-8"?><svg id="Layer_2" xmlns="http://www.w3.org/2000/svg" viewBox="0 0 324.26 82.1"><defs><style>.cls-1{fill:#261e1e;}</style></defs><g id="Layer_3"><path class="cls-1" d="m0,80.44h14.22v-25.83h25.35c3.16,0,4.74,1.54,4.74,4.62v21.21h14.22v-18.36c0-4.74-.83-8.47-2.49-11.2-1.66-2.72-4.34-4.72-8.06-5.98,3.4-1.58,6-4.24,7.82-8,1.82-3.75,2.72-8.31,2.72-13.68v-1.54h-14.22v2.72c0,5.92-1.3,10.31-3.91,13.15-2.61,2.84-6.68,4.27-12.2,4.27h-13.98V10.9H0v69.54ZM76.53,17.06c2.61,0,4.74-.79,6.4-2.37,1.66-1.58,2.49-3.63,2.49-6.16s-.81-4.58-2.43-6.16c-1.62-1.58-3.77-2.37-6.46-2.37s-4.74.79-6.4,2.37c-1.66,1.58-2.49,3.63-2.49,6.16s.83,4.58,2.49,6.16c1.66,1.58,3.79,2.37,6.4,2.37m228.77,51.3h-22.51c-3.16,0-4.74-1.54-4.74-4.62v-25.35c0-3.08,1.58-4.62,4.74-4.62h22.51c3.16,0,4.74,1.54,4.74,4.62v25.35c0,3.08-1.58,4.62-4.74,4.62m-14.34,13.74c4.34,0,8.09-.69,11.26-2.07,3.16-1.38,6.04-3.57,8.65-6.58v6.99h13.39V21.68h-13.39v6.99c-2.61-3-5.49-5.19-8.65-6.58-3.16-1.38-6.91-2.07-11.26-2.07-8.93,0-15.88,2.82-20.85,8.47-4.98,5.65-7.46,13.17-7.46,22.57s2.49,16.92,7.46,22.57c4.98,5.65,11.93,8.47,20.85,8.47m-42.65-1.66h12.2v-12.56h-12.8c-3.16,0-4.74-1.54-4.74-4.62v-29.03h17.53v-12.56h-17.53v-12.68h-13.03v7.7c0,3.32-1.58,4.98-4.74,4.98h-7.94v12.56h11.49v27.01c0,6,1.72,10.7,5.15,14.1,3.44,3.4,8.23,5.09,14.39,5.09m-84.71,0h27.96c16.03,0,24.05-5.73,24.05-17.18,0-5.21-1.56-9.18-4.68-11.91-3.12-2.72-8.27-4.6-15.46-5.63l-11.85-1.78c-3.4-.55-5.61-1.13-6.63-1.72-1.03-.59-1.54-1.64-1.54-3.14v-1.07c0-1.34.36-2.31,1.07-2.9.71-.59,1.93-.89,3.67-.89h31.51v-12.56h-26.06c-8.06,0-14.14,1.48-18.25,4.44-4.11,2.96-6.16,7.37-6.16,13.21,0,5.06,1.6,8.93,4.8,11.61,3.2,2.69,8.43,4.58,15.7,5.69l11.49,1.66c2.45.32,4.22.63,5.33.95,1.1.32,1.86.75,2.25,1.3.39.55.59,1.34.59,2.37v1.18c0,1.34-.38,2.31-1.13,2.9-.75.59-1.95.89-3.61.89h-33.05v12.56Zm-68.12,0h14.22v-42.06c0-3.08,1.58-4.62,4.74-4.62h20.73c3.16,0,4.74,1.54,4.74,4.62v42.06h14.22v-40.04c0-6.16-2.03-11.1-6.1-14.81-4.07-3.71-9.89-5.57-17.47-5.57-4.58,0-8.75.75-12.5,2.25-3.75,1.5-6.81,3.63-9.18,6.4v-6.99h-13.39v58.76Zm-26.06,0h14.22V21.68h-14.22v58.76Z"/></g></svg>